# xmcd CD database file
#
# Track frame offsets:
#	150
#	17682
#	31843
#	71627
#	94628
#	110227
#	124171
#	140715
#	157093
#	177281
#	189996
#	230887
#
# Disc length: 4440 seconds
#
# Revision: 0
# Processed by: cddbd v1.5.1PL2 Copyright (c) Steve Scherf et al.
# Submitted via: CDex 1.51
#
DISCID=aa11560c
DTITLE=Various Artist - The Best Greek album...ever!  (disc2)
DYEAR=2004
DGENRE=World music
TTITLE0=Notis Sfakianakis  -  na haris
TTITLE1=Valantis  -  ti allo thelis pio poli
TTITLE2=DJ George Papadakos  -  Gitonisa-Melisoula medley remix
TTITLE3=Arkadia  -  PAtritha
TTITLE4=Vasilis Karras  -  fenomeno
TTITLE5=exodos  -  Katerina
TTITLE6=Stelios Kazantzidis  -  iparho
TTITLE7=Yiannis Ploutarhos  -  ena Mantili
TTITLE8=Maria Antonakos  -  stars of Sparta
TTITLE9=Pavlo  -  opah!
TTITLE10=Angelo Tsarouchas  -  it's all Greek to me sayings
TTITLE11=track data
EXTD=YEAR: 2004
EXTT0=
EXTT1=
EXTT2=
EXTT3=
EXTT4=
EXTT5=
EXTT6=
EXTT7=
EXTT8=
EXTT9=
EXTT10=
EXTT11=
PLAYORDER=
